{"title":"Kama Sutra A Tale of Love 1996 1080p Blu-ray DTS-HDMA 2.0-DDR","uid":14690787,"size":9869809608,"categoryP":"video","categoryS":"hd___movies","magnet":"?xt=urn:btih:baaebed3bc1de6e3a5380f9e26aa08abae8963cb&amp;dn=Kama+Sutra+A+Tale+of+Love+1996+1080p+Blu-ray+DTS-HDMA+2.0-DDR&amp;tr=udp%3A%2F%2Ftracker.leechers-paradise.org%3A6969&amp;tr=udp%3A%2F%2Fzer0day.ch%3A1337&amp;tr=udp%3A%2F%2Fopen.demonii.com%3A1337&amp;tr=udp%3A%2F%2Ftracker.coppersurfer.tk%3A6969&amp;tr=udp%3A%2F%2Fexodus.desync.com%3A6969","seeders":5,"leechers":15,"uploader":"SaM","files":3,"time":1464197391,"description":"- HollywooD MoviE -\r\n**- Kama Sutra A Tale of Love -**\r\n- 1996 -\r\n** HQ 1080p Blu-Ray / x264 / DTS-HDMA 2.0 **\r\nEnglish subtitle(s)\r\n\r\nSCREENSHOTS \r\n \nhttp://extraimago.com/image/azYC \nhttp://extraimago.com/image/azY4 \nhttp://extraimago.com/image/azYv \nhttp://extraimago.com/image/azYu \nhttp://extraimago.com/image/azYV \nhttp://extraimago.com/image/azY6 \nhttp://extraimago.com/image/azYx \nhttp://extraimago.com/image/azYt \nhttp://extraimago.com/image/azYo \nhttp://extraimago.com/image/azYk \nhttp://extraimago.com/image/azYX\r\n\r\n[ Specs ]\r\nGeneral\r\nSource = BD50 @ IPT\r\nFormat : Matroska\r\nFile size : 9.13 GiB\r\nDuration : 1h 51mn\r\nOverall bit rate : 11.8 Mbps\r\n\r\nVideo\r\nFormat : AVC\r\nFormat profile :   \r\nBit rate : 10 000 Kbps\r\nHeight : 1 080 pixels\r\nDisplay aspect ratio : 16:9\r\nFrame rate mode : Constant\r\nFrame rate : 24.000 fps\r\nBit depth : 8 bits\r\nScan type : Progressive\r\nStream size : 7.76 GiB (85%)\r\nTransfer characteristics : BT.709\r\n\r\nAudio #1\r\nFormat : DTS\r\nFormat/Info : Digital Theater Systems\r\nFormat profile : MA / Core\r\nMode : 16\r\nFormat settings, Endianness : Big\r\nCodec ID : A_DTS\r\nDuration : 1h 51mn\r\nBit rate mode : Variable / Constant\r\nBit rate : 1 745 Kbps / 1 509 Kbps\r\nChannel(s) : 2 channels\r\nChannel positions : Front: L R\r\nSampling rate : 48.0 KHz\r\nFrame rate : 93.750 fps (512 spf)\r\nBit depth : 16 bits\r\nCompression mode : Lossless / Lossy\r\nStream size : 1.35 GiB (15%)\r\nDefault : Yes\r\nForced : No\r\n\r\nChapters: YES\r\nSample: YES - included\r\n\r\nA DDR Exclusive Release...!","torrent":{"xt":"urn:btih:baaebed3bc1de6e3a5380f9e26aa08abae8963cb","amp;dn":"Kama+Sutra+A+Tale+of+Love+1996+1080p+Blu-ray+DTS-HDMA+2.0-DDR","amp;tr":["udp%3A%2F%2Ftracker.leechers-paradise.org%3A6969","udp%3A%2F%2Fzer0day.ch%3A1337","udp%3A%2F%2Fopen.demonii.com%3A1337","udp%3A%2F%2Ftracker.coppersurfer.tk%3A6969","udp%3A%2F%2Fexodus.desync.com%3A6969"],"infoHash":"baaebed3bc1de6e3a5380f9e26aa08abae8963cb","infoHashBuffer":{"type":"Buffer","data":[186,174,190,211,188,29,230,227,165,56,15,158,38,170,8,171,174,137,99,203]},"announce":[],"urlList":[]}}